# xmcd
#
# Track frame offsets: 
#        150
#        17546
#        25830
#        48841
#        67844
#        73565
#        83979
#        97370
#        112203
#        131248
#        136763
#        155043
#        165317
#        182758
#
# Disc length: 2689 seconds
#
# Revision: 0
# Processed by: cddbd v1.5.2PL0 Copyright (c) Steve Scherf et al.
# Submitted via: ExactAudioCopy v0.95b4
#
DISCID=bc0a7f0e
DTITLE=James Brown - James Brown Live
DYEAR=2006
DGENRE=Soul
TTITLE0=Please, Please, Please
TTITLE1=Try Me
TTITLE2=Prisoner of Love
TTITLE3=It's a Man's, Man's, Man's World
TTITLE4=Cold Sweat
TTITLE5=Papa's Got a Brand New Bag
TTITLE6=I Got You (I Feel Good)
TTITLE7=Get on the Good Foot
TTITLE8=Sex Machine
TTITLE9=Hot Pants
TTITLE10=Give it Up, Turn it Loose
TTITLE11=Get Up Offa That Thing
TTITLE12=Gonna Have a Funky Good Time
TTITLE13=Super Bad
EXTD=
EXTT0=
EXTT1=
EXTT2=
EXTT3=
EXTT4=
EXTT5=
EXTT6=
EXTT7=
EXTT8=
EXTT9=
EXTT10=
EXTT11=
EXTT12=
EXTT13=
PLAYORDER=
